<svg xmlns="http://www.w3.org/2000/svg" width="1024" height="1024"><svg xmlns="http://www.w3.org/2000/svg" xmlns:svg="http://www.w3.org/2000/svg" id="SvgjsSvg1057" width="1024" height="1024"><path id="SvgjsPath1054" fill="#4c6a86" stroke-width="1.256" d="m582.948 13.42 3.013.016c17.98.344 33.757 6.447 47.002 18.574 8.695 9.125 13.154 20.96 14.296 33.314l4.81.604c17.405 2.244 34.644 5.137 51.9 8.324 6.05 1.116 12.104 2.21 18.159 3.305q8.985 1.629 17.967 3.273 4.472.816 8.945 1.624c62.87 11.37 62.87 11.37 79.138 25.587l2.258 1.816c10.382 9.142 17.269 24.732 18.178 38.364q.015 2.643-.02 5.286l-.017 2.81c-.151 9.227-1.137 18.32-4.066 27.107l3.377.236c12.206 1.783 23.298 7.531 33.058 14.84l3.298 2.2c11.625 11.012 16.945 23.785 17.384 39.57l.049 3.775.07 3.532c-.189 21.295-9.709 41.973-16.724 61.738-2.355 6.643-4.69 13.292-7.03 19.94l-1.825 5.184c-6.897 19.58-13.667 39.204-20.413 58.837l-2.634 7.662c-5.612 16.236-5.612 16.236-11.122 32.507l4.318.157c7.861 1.03 14.221 4.99 19.062 11.253 5.863 9.847 7.157 20.273 7.078 31.56l.008 3.338c.005 3.636-.009 7.27-.023 10.906v7.746c0 6.909-.02 13.817-.041 20.725q-.018 6.486-.027 12.97c-.052 35.642-.25 71.275-.942 106.91-.4 20.722-.663 41.442-.855 62.167l-.039 4.218q-.198 21.047-.37 42.093-.068 7.896-.141 15.79-.033 3.666-.06 7.332c-.092 12.58-.327 25.135-.913 37.702l-.152 3.257c-1.372 27.11-8.378 50.885-28.159 70.404l-2.895 2.935c-15.462 14.854-35.356 22.147-54.898 30.045l-7.772 3.176a5333 5333 0 0 1-47.043 18.942c-10.455 4.157-20.86 8.427-31.248 12.747-29.822 12.378-59.849 24.188-89.964 35.83q-3.51 1.356-7.02 2.716c-15.298 5.919-30.608 11.798-46.018 17.422l-3.365 1.232c-13.788 4.99-26.52 7.195-41.226 7.425l-3.61.086c-23.484-.079-44.794-9.85-66.198-18.46q-4.741-1.89-9.485-3.773a8871 8871 0 0 1-18.986-7.574 3716 3716 0 0 0-22.408-8.873c-54.654-21.459-109.26-43.186-163.414-65.88a1670 1670 0 0 0-7.497-3.12c-11.976-4.962-22.765-10.185-32.785-18.594l-3.318-2.704c-18.769-15.988-28.53-38.296-30.604-62.628-.31-5.855-.472-11.713-.624-17.574l-.075-2.764c-.95-35.17-1.387-70.356-1.893-105.535l-.041-2.888c-.803-55.697-1.427-111.393-1.52-167.096q-.016-6.84-.045-13.679-.041-10.65-.028-21.3 0-3.855-.018-7.711c-.131-29.475-.131-29.475 9.284-42.28 7.317-6.942 13.169-9.356 23.331-9.217l4.295.173q3.697.108 7.396.21l6.424.183c-5.924-23.37-12.287-46.575-19.003-69.73l-1.405-4.86a5654 5654 0 0 0-26.078-87.484l-1.206-3.932-5.159-16.827q-3.134-10.228-6.28-20.452l-2.285-7.434-1.033-3.345c-7.513-24.49-12.442-46.397.017-70.056 15.772-26.663 48.156-32.294 75.781-39.635q4.683-1.26 9.364-2.525a3375 3375 0 0 1 25.03-6.662l4.212-1.1 4.088-1.049 3.671-.944c3.105-.676 3.105-.676 6.874-.676l.157-4.712c1.59-13.68 9.992-25.177 19.945-34.236 13.255-10.369 28.222-14.179 44.646-16.431l4.566-.657q6.174-.876 12.354-1.718 3.922-.537 7.845-1.084c42.829-5.947 85.819-10.402 128.834-14.753 8.064-.816 16.126-1.644 24.189-2.47a10363 10363 0 0 1 30.423-3.082l3.184-.319c6.879-.7 13.74-1.503 20.604-2.345 7.388-.895 14.69-1.564 22.138-1.507"/><path id="SvgjsPath1053" fill="#fefefe" stroke-width="1.256" d="M187.423 477.418h644.524v72.87c-2.46 2.46-7.189 1.518-10.556 1.566l-5.828.125q-4.59.09-9.179.165c-18.711-.671-18.711-.671-35.45 5.682-3.789 5.272-3.677 9.996-3.062 16.333 2.041 4.696 4.468 7.347 8.795 10.052 3.338 1.112 5.38 1.438 8.81 1.514l3.048.076 3.272.063 3.364.08q5.319.121 10.638.23l7.212.164q8.84.201 17.68.385.045 32.463.065 64.925.008 15.086.03 30.17c.037 26.515.025 53.029-.095 79.543l-.011 2.57c-.045 10.15-.121 20.299-.256 30.448q-.051 4.102-.078 8.206c-.283 40.36-.283 40.36-13.475 54.26-8.067 6.64-16.702 11.001-26.365 14.807l-3.964 1.606a2114 2114 0 0 1-12.388 4.946q-3.837 1.537-7.674 3.077c-8.425 3.371-16.866 6.704-25.306 10.037-6.908 2.73-13.815 5.466-20.72 8.2l-2.852 1.13a19153 19153 0 0 0-52.316 20.825q-13.688 5.465-27.378 10.926-11.375 4.54-22.746 9.088-10.881 4.352-21.767 8.69a5982 5982 0 0 0-8.043 3.217c-14.33 5.742-28.709 11.302-43.225 16.558l-4.03 1.465-3.764 1.348-3.31 1.188c-7.336 2.334-14.332 2.56-21.966 2.642l-3.313.11c-17.39.165-33.662-8.04-49.534-14.402l-6.881-2.739q-7.766-3.09-15.53-6.19a16218 16218 0 0 0-30.141-11.978l-11.258-4.465-2.834-1.124c-79.5-31.537-79.5-31.537-115.51-46.24q-5.75-2.345-11.503-4.686a3796 3796 0 0 1-18.718-7.689 1359 1359 0 0 0-7.338-2.996 1551 1551 0 0 1-10.671-4.38l-3.175-1.266c-11.971-5.013-21.86-12.46-27.69-24.268-3.977-11.073-5.183-22.286-5.399-33.973l-.075-3.37q-.118-5.545-.224-11.092l-.164-7.915q-.216-10.647-.415-21.294-.126-6.61-.254-13.219c-1.063-55.15-1.315-110.28-1.007-165.44l4.358-.055c5.365-.073 10.729-.17 16.093-.274q3.474-.063 6.95-.106c3.34-.042 6.68-.108 10.02-.178l3.11-.024c7.504-.19 14.086-1.257 19.657-6.749 2.539-4.922 2.28-9.857 1.374-15.228-3.662-5.494-7.257-6.822-13.553-8.29-4.547-.826-9.043-.954-13.655-1.025l-2.664-.067c-3.234-.079-6.469-.137-9.704-.198l-21.986-.471z"/><path id="SvgjsPath1052" fill="#fefefe" stroke-width="1.256" d="m583.576 54.802 2.667-.054c6.794.067 11.765 1.801 16.827 6.365l1.786 2.17 1.826 2.15c3.174 4.685 4.447 9.386 5.014 14.966l.393 3.748.4 4.076.447 4.334c.49 4.764.965 9.53 1.441 14.297q.515 5.068 1.034 10.136 1.092 10.712 2.167 21.426 1.472 14.646 2.968 29.29c4.475 43.918 8.744 87.855 12.889 131.806 1.398 14.814 2.824 29.625 4.253 44.436q1.313 13.631 2.621 27.263l1.282 13.321q.678 7.033 1.347 14.068.336 3.519.678 7.037c1.036 10.947 1.7 21.841 2.387 32.833H335.676c-1.603-13.63-3.162-27.246-4.55-40.896l-.553-5.402-1.44-14.08q-1.277-12.522-2.56-25.041l-.285-2.771a7701 7701 0 0 0-4.237-40.239c-2.05-19.038-4.019-38.084-5.995-57.13l-.99-9.532c-2.98-28.7-5.943-57.402-8.855-86.11l-.345-3.394-.652-6.447a1532 1532 0 0 0-1.67-15.755l-.356-3.23q-.33-2.989-.677-5.975c-2.242-20.38-2.242-20.38 4.268-29.503 8.52-9.727 19.952-10.381 32.15-11.956 1.297-.17 2.592-.342 3.927-.518 4.28-.562 8.562-1.112 12.844-1.66l4.514-.583c31.844-4.098 63.751-7.478 95.691-10.729 14.25-1.453 28.496-2.957 42.741-4.459q6.624-.697 13.25-1.39l8.34-.876c1.347-.14 2.692-.282 4.079-.427Q535.096 59.23 545.867 58l4.599-.523q4.329-.495 8.656-1.003c8.158-.932 16.244-1.536 24.454-1.673"/><path id="SvgjsPath1051" fill="#fefefe" stroke-width="1.256" d="M654.797 108.041a3377 3377 0 0 1 60.77 9.693l5.794.977 2.882.485a1956 1956 0 0 0 18.88 3.068c27.568 4.385 27.568 4.385 41.082 7.842l2.822.707c8.618 2.362 14.704 6.312 19.793 13.663 3.414 10.242.6 21.137-1.688 31.36l-.932 4.307c-.999 4.604-2.016 9.204-3.034 13.803q-1.047 4.801-2.092 9.603A9318 9318 0 0 1 793 231.167l-1.519 6.886a9012 9012 0 0 1-6.113 27.507 8980 8980 0 0 0-8.793 39.792c-5.504 25.093-10.926 50.204-16.337 75.317q-1.704 7.909-3.411 15.817-.949 4.398-1.895 8.797l-1.18 5.468-1.022 4.746c-1.604 7.25-3.29 14.481-4.96 21.717h-60.307c-2.826-16.956-2.826-16.956-3.505-24.16l-.473-4.91-.238-2.553a2702 2702 0 0 0-.774-8.14q-.56-5.812-1.111-11.626a10289 10289 0 0 0-3.24-33.429c-1.528-15.522-3.262-31.005-5.264-46.474-2.829-21.982-4.87-44.011-6.811-66.088l-.781-8.868-.398-4.519a3576 3576 0 0 0-3.303-34.93l-.519-5.272c-.673-6.83-1.348-13.66-2.035-20.49-1.936-19.233-3.554-38.39-4.214-57.714"/><path id="SvgjsPath1050" fill="#fefefe" stroke-width="1.256" d="m265.319 136.938.381 4.146c2.134 23.114 4.28 46.22 7 69.274 3.246 27.545 5.937 55.148 8.719 82.743a16504 16504 0 0 0 4.935 48.01c2.27 21.857 4.537 43.714 6.745 65.578q.327 3.233.657 6.467.445 4.365.881 8.73l.493 4.876c.288 3.513.413 6.93.342 10.452q-10.295.046-20.59.069-3.5.009-7 .025-5.04.022-10.077.028l-3.15.02c-4.994 0-9.589-.155-14.464-1.399l-.763-2.901a2977 2977 0 0 0-21.25-76.51 8704 8704 0 0 1-11.797-40.696c-10.58-36.867-21.3-73.687-32.331-110.422l-.833-2.78q-.944-3.132-1.904-6.26l-1.034-3.385-.946-3.078c-2.009-7.26-1.953-14.113 1.364-20.87 13.583-15.052 38.3-18.56 57.166-23.715q3.687-1.02 7.374-2.044 3.525-.975 7.05-1.946l3.291-.908c12.836-3.504 12.836-3.504 19.74-3.504"/><path id="SvgjsPath1049" fill="#fbfcfc" stroke-width="1.256" d="M834.46 222.372q3.013.549 6.022 1.12l3.387.628c6.385 1.548 11.854 5.72 15.828 10.927 5.835 12.22-1.803 28.394-5.841 40.172q-1.115 3.33-2.225 6.663a2408 2408 0 0 1-7.12 20.899l-1.149 3.331a5267 5267 0 0 1-10.293 29.53 3278 3278 0 0 0-13.126 38.011l-1.453 4.297a9837 9837 0 0 0-6.994 20.76c-4.103 12.177-8.19 24.262-13.47 35.99h-8.796c1.893-15.74 5.198-31.145 8.481-46.642l1.725-8.207q2.073-9.85 4.162-19.7.907-4.282 1.81-8.565a4255 4255 0 0 1 5.826-27.153l2.128-9.786c6.706-30.839 13.43-61.659 21.098-92.275"/><path id="SvgjsPath1048" fill="#4a6884" stroke-width="1.256" d="M422.302 556.082c1.233-.01 2.466-.023 3.736-.036l4.014.023 4.15-.01q4.343-.006 8.687.02c4.423.02 8.844 0 13.267-.025q4.223.005 8.447.015l3.998-.023c8.016.077 13.995.712 20.118 6.413 3.167 6.167 3.25 11.185 1.414 17.668-2.903 4.869-4.955 6.48-9.973 9.109-4.078.682-8.073.646-12.2.579l-3.53-.004a784 784 0 0 1-7.368-.059 910 910 0 0 0-11.207-.05q-3.593-.02-7.185-.045l-3.352-.009c-10.06-.152-18.693-1.411-26.772-7.952-3.254-4.29-3.054-8.584-2.512-13.82 3.918-7.278 7.764-11.771 16.268-11.795z"/><path id="SvgjsPath1047" fill="#4a6884" stroke-width="1.256" d="M543.798 556.225c1.183-.013 2.366-.024 3.584-.036 1.276 0 2.552.003 3.867.004l3.986-.017q4.178-.011 8.355-.003c4.252.004 8.503-.025 12.755-.057q4.06-.005 8.12-.003l3.843-.035c6.767.044 11.683.38 17.49 4.26 4.308 4.875 5.866 8.753 5.512 15.131-1.048 5.304-3.969 8.765-8.1 12.064-5.198 2.396-9.794 2.22-15.452 2.159-1.136 0-2.271 0-3.441.003q-3.6-.005-7.198-.036c-3.643-.03-7.284-.026-10.926-.017q-3.51-.013-7.018-.028l-3.261.004c-8.774-.101-17.343-.339-24.32-6.035-3.094-4.381-3.243-8.695-2.975-13.938.792-4.435 2.627-7.203 5.566-10.561 4-2.667 5.024-2.832 9.613-2.858z"/><path id="SvgjsPath1046" fill="#4a6884" stroke-width="1.256" d="m672.107 555.981 3.975-.029q4.155-.02 8.31-.011c4.23 0 8.458-.051 12.688-.107q4.042-.01 8.086-.01l3.82-.062c5.741.056 9.856.14 14.434 3.839 4.665 5.07 4.674 8.431 4.606 15.128-.522 4.658-2.284 7.294-5.384 10.738-4.507 3.019-9.264 3.074-14.527 3.298l-2.902.136c-9.367.386-18.74.552-28.115.649l-4.44.082c-13.116.051-13.116.051-19.117-4.165-4.346-4.918-5.796-8.721-5.428-15.13.838-5.118 2.652-8.714 6.609-12.057 5.736-2.551 11.172-2.298 17.385-2.299"/><path id="SvgjsPath1045" fill="#4a6884" stroke-width="1.256" d="m306.369 556.205 3.507-.049 3.764-.009 3.896-.025q4.078-.02 8.155-.018c4.15-.005 8.299-.051 12.449-.099q3.965-.012 7.93-.015l3.75-.054c7.41.049 11.606.75 17.266 5.66 3.463 5.039 3.177 10.434 2.512 16.332-1.676 4.284-3.05 5.82-6.905 8.3-5.763 2.293-10.732 2.316-16.878 2.296l-3.613.02q-3.773.011-7.546-.004c-3.828-.01-7.653.025-11.48.065q-3.678.004-7.357-.003l-3.435.043c-8.601-.094-15.646-1.965-21.899-8.13-2.447-4.887-2.223-9.852-1.295-15.151 4.625-6.167 9.516-9.087 17.179-9.16z"/></svg><style>@media (prefers-color-scheme:light){:root{filter:none}}@media (prefers-color-scheme:dark){:root{filter:none}}</style></svg>